<?xml version="1.0" encoding="UTF-8"?>
<!-- Generated by Pixelmator Pro 3.7 -->
<svg width="512" height="512" viewBox="0 0 512 512" xmlns="http://www.w3.org/2000/svg">
    <path id="Path" fill="none" stroke="#60d838" stroke-width="35" stroke-linecap="round" d="M 117 63 C 117 63 76.427322 194.825317 184 189 C 291.572693 183.174683 264 275 264 275 C 264 275 259.448395 328.877563 185 301 C 110.551613 273.122437 109.459351 355.106323 136 365 C 162.540649 374.893677 179.524445 377.891998 179 417 C 178.475555 456.108002 180 477 180 477"/>
    <path id="path1" fill="none" stroke="#60d838" stroke-width="35" stroke-linecap="round" d="M 371 63 C 371 63 303.708099 233.487183 476 192"/>
    <path id="path2" fill="none" stroke="#60d838" stroke-width="35" stroke-linecap="round" d="M 325 477 C 325 477 284.822388 390.415527 358 386 C 431.177612 381.584473 371.661652 314.110901 406 300 C 440.338348 285.889099 487 290 487 290"/>
    <path id="Oval" fill="#434dff" fill-rule="evenodd" stroke="none" d="M 256 0 C 397.384888 0 512 114.615112 512 256 C 512 397.384888 397.384888 512 256 512 C 114.615105 512 0 397.384888 0 256 C 0 114.615112 114.615105 0 256 0 Z M 477 256 C 477 378.054932 378.054932 477 256 477 C 133.945068 477 35 378.054932 35 256 C 35 133.945068 133.945068 35 256 35 C 378.054932 35 477 133.945084 477 256 Z"/>
</svg>
