<?xml version="1.0" encoding="UTF-8"?>
<!-- Generated by Pixelmator Pro 3.7 -->
<svg width="512" height="512" viewBox="0 0 512 512" xmlns="http://www.w3.org/2000/svg">
    <path id="Line" fill="none" stroke="#f2aa60" stroke-width="35" stroke-linecap="round" d="M 74 122 L 274 122"/>
    <path id="Line-copy" fill="none" stroke="#e34512" stroke-width="35" stroke-linecap="round" d="M 335 222 L 474 222"/>
    <path id="Line-copy-4" fill="none" stroke="#d02a09" stroke-width="35" stroke-linecap="round" d="M 215 222 L 274 222"/>
    <path id="Line-copy-5" fill="none" stroke="#eac4a7" stroke-width="35" stroke-linecap="round" d="M 156 221 L 155 221"/>
    <path id="Line-copy-6" fill="none" stroke="#ddbd9e" stroke-width="35" stroke-linecap="round" d="M 386 326 L 385 326"/>
    <path id="Line-copy-2" fill="none" stroke="#d26c16" stroke-width="35" stroke-linecap="round" d="M 104 435 L 243 435"/>
    <path id="Line-copy-3" fill="none" stroke="#e34512" stroke-width="35" stroke-linecap="round" d="M 44 326 L 329 326"/>
    <path id="Oval" fill="#ecd8bd" fill-rule="evenodd" stroke="none" d="M 256 0 C 397.384888 0 512 114.615112 512 256 C 512 397.384888 397.384888 512 256 512 C 114.615105 512 0 397.384888 0 256 C 0 114.615112 114.615105 0 256 0 Z M 477 256 C 477 378.054932 378.054932 477 256 477 C 133.945068 477 35 378.054932 35 256 C 35 133.945068 133.945068 35 256 35 C 378.054932 35 477 133.945084 477 256 Z"/>
</svg>
