<?xml version="1.0" encoding="UTF-8"?>
<!-- Generated by Pixelmator Pro 3.7 -->
<svg width="512" height="512" viewBox="0 0 512 512" xmlns="http://www.w3.org/2000/svg">
    <path id="Path" fill="none" stroke="#ff733d" stroke-width="35" stroke-linecap="round" d="M 67 121.435669 C 67 121.435669 107.336845 146.885162 217.02597 145.999481 C 326.715118 145.1138 360.894257 107.277954 447 119.388672"/>
    <path id="path1" fill="none" stroke="#fcca80" stroke-width="35" stroke-linecap="round" d="M 27 283 C 27 283 110.890297 208.240662 233 242 C 355.109711 275.759338 296.056213 270.300018 405 281 C 513.943787 291.699982 491.532745 228.20224 585 232"/>
    <path id="path2" fill="none" stroke="#b44220" stroke-width="35" stroke-linecap="round" d="M 91 424 C 91 424 163.801285 382.799255 256 404 C 348.1987 425.200745 307.480286 428.635193 401 438"/>
    <path id="Oval" fill="#712b12" fill-rule="evenodd" stroke="none" d="M 256 0 C 397.384888 0 512 114.615112 512 256 C 512 397.384888 397.384888 512 256 512 C 114.615105 512 0 397.384888 0 256 C 0 114.615112 114.615105 0 256 0 Z M 477 256 C 477 378.054932 378.054932 477 256 477 C 133.945068 477 35 378.054932 35 256 C 35 133.945068 133.945068 35 256 35 C 378.054932 35 477 133.945084 477 256 Z"/>
</svg>
