<?xml version="1.0" encoding="UTF-8"?>
<!-- Generated by Pixelmator Pro 3.7 -->
<svg width="512" height="512" viewBox="0 0 512 512" xmlns="http://www.w3.org/2000/svg">
    <path id="Path-copy-2" fill="none" stroke="#888888" stroke-width="35" stroke-linecap="round" d="M 429 410 C 429 410 372.514435 328.908966 256 394 C 139.485565 459.091034 82 421 82 421"/>
    <path id="Path-copy" fill="none" stroke="#555456" stroke-width="35" stroke-linecap="round" d="M 495 266 C 495 266 438.514435 184.908966 322 250 C 205.485565 315.091034 148 277 148 277"/>
    <path id="Path" fill="none" stroke="#a9a9a9" stroke-width="35" stroke-linecap="round" d="M 458 133 C 458 133 401.514435 51.908966 285 117 C 168.485565 182.091034 111 144 111 144"/>
    <path id="Oval" fill="#d1cfcf" fill-rule="evenodd" stroke="none" d="M 256 0 C 397.384888 0 512 114.615112 512 256 C 512 397.384888 397.384888 512 256 512 C 114.615105 512 0 397.384888 0 256 C 0 114.615112 114.615105 0 256 0 Z M 477 256 C 477 378.054932 378.054932 477 256 477 C 133.945068 477 35 378.054932 35 256 C 35 133.945068 133.945068 35 256 35 C 378.054932 35 477 133.945084 477 256 Z"/>
</svg>
