<?xml version="1.0" encoding="UTF-8"?>
<!-- Generated by Pixelmator Pro 3.7 -->
<svg width="512" height="512" viewBox="0 0 512 512" xmlns="http://www.w3.org/2000/svg">
    <path id="Path" fill="none" stroke="#364bca" stroke-width="35" stroke-linecap="round" d="M 73 110 C 73 110 163.955658 76.618591 430 115"/>
    <path id="path1" fill="none" stroke="#1c1f4f" stroke-width="35" stroke-linecap="round" d="M 73 408 C 73 408 240.46701 350.880676 436 410"/>
    <path id="path2" fill="none" stroke="#394ccb" stroke-width="35" stroke-linecap="round" d="M 208 230 C 208 230 261.164886 220.602478 311 238"/>
    <path id="Oval" fill="#4263ee" fill-rule="evenodd" stroke="none" d="M 256 0 C 397.384888 0 512 114.615112 512 256 C 512 397.384888 397.384888 512 256 512 C 114.615105 512 0 397.384888 0 256 C 0 114.615112 114.615105 0 256 0 Z M 477 256 C 477 378.054932 378.054932 477 256 477 C 133.945068 477 35 378.054932 35 256 C 35 133.945068 133.945068 35 256 35 C 378.054932 35 477 133.945084 477 256 Z"/>
</svg>
