<?xml version="1.0" encoding="UTF-8"?>
<!-- Generated by Pixelmator Pro 3.7 -->
<svg width="720" height="512" viewBox="0 0 720 512" xmlns="http://www.w3.org/2000/svg">
    <path id="Oval" fill="#c4ab8a" fill-rule="evenodd" stroke="none" d="M 360 0 C 501.384888 0 616 114.615112 616 256 C 616 397.384888 501.384888 512 360 512 C 218.615112 512 104 397.384888 104 256 C 104 114.615112 218.615112 0 360 0 Z M 581 256 C 581 378.054932 482.054932 477 360 477 C 237.945084 477 139 378.054932 139 256 C 139 133.945084 237.945084 35 360 35 C 482.054932 35 581 133.945084 581 256 Z"/>
    <path id="Path" fill="none" stroke="#060505" stroke-width="35" stroke-linecap="round" d="M 185 88 C 185 88 29.647438 1.360352 54 78 C 78.352562 154.639618 128 198 128 198 C 128 198 253.185806 353.499146 529 423 C 804.814209 492.500854 598 326 598 326"/>
    <path id="path1" fill="none" stroke="#c4ab8a" stroke-width="35" stroke-linecap="round" d="M 241 49 C 241 49 199.744141 70.690369 167 116"/>
    <path id="path2" fill="none" stroke="#c4ab8a" stroke-width="35" stroke-linecap="round" d="M 598 254 C 598 254 597.211182 307.971344 578 352"/>
</svg>
