<?xml version="1.0" encoding="UTF-8"?>
<!-- Generated by Pixelmator Pro 3.7 -->
<svg width="512" height="512" viewBox="0 0 512 512" xmlns="http://www.w3.org/2000/svg">
    <path id="Line" fill="none" stroke="#e3f8fc" stroke-width="35" stroke-linecap="round" d="M 399 81 L 249 145"/>
    <path id="Line-copy" fill="none" stroke="#8cd4d0" stroke-width="35" stroke-linecap="round" d="M 153 225 L 32 278"/>
    <path id="Line-copy-2" fill="none" stroke="#3bdbe4" stroke-width="35" stroke-linecap="round" d="M 324 244 L 203 297"/>
    <path id="Line-copy-3" fill="none" stroke="#85d0db" stroke-width="35" stroke-linecap="round" d="M 422.000183 338.000427 L 157 461"/>
    <path id="Oval" fill="#64c0bd" fill-rule="evenodd" stroke="none" d="M 256 0 C 397.384888 0 512 114.615112 512 256 C 512 397.384888 397.384888 512 256 512 C 114.615105 512 0 397.384888 0 256 C 0 114.615112 114.615105 0 256 0 Z M 477 256 C 477 378.054932 378.054932 477 256 477 C 133.945068 477 35 378.054932 35 256 C 35 133.945068 133.945068 35 256 35 C 378.054932 35 477 133.945084 477 256 Z"/>
</svg>
