<?xml version="1.0" encoding="UTF-8"?>
<!-- Generated by Pixelmator Pro 3.7 -->
<svg width="512" height="512" viewBox="0 0 512 512" xmlns="http://www.w3.org/2000/svg">
    <clipPath id="clipPath1">
        <path clip-rule="evenodd" d="M 512 256 C 512 114.615112 397.384888 0 256 0 C 114.615105 0 0 114.615112 0 256 C 0 397.384895 114.615105 512 256 512 C 397.384888 512 512 397.384895 512 256 Z"/>
    </clipPath>
    <g id="Group" clip-path="url(#clipPath1)">
        <path id="Oval-copy" fill="#dd5701" fill-rule="evenodd" stroke="none" d="M 159.5 -66 C 226.050308 -66 280 -12.94574 280 52.5 C 280 117.94574 226.050308 171 159.5 171 C 92.949692 171 39 117.94574 39 52.5 C 39 -12.94574 92.949692 -66 159.5 -66 Z M 245 52.5 C 245 98.483437 206.85025 136 159.5 136 C 112.14975 136 74 98.483437 74 52.5 C 74 6.51656 112.14975 -31 159.5 -31 C 206.85025 -31 245 6.51656 245 52.5 Z"/>
        <path id="Oval-copy-2" fill="#e5300d" fill-rule="evenodd" stroke="none" d="M 473.5 90 C 561.589417 90 633 161.63446 633 250 C 633 338.36557 561.589417 410 473.5 410 C 385.410583 410 314 338.36557 314 250 C 314 161.63446 385.410583 90 473.5 90 Z M 598 250 C 598 319.060089 542.234863 375 473.5 375 C 404.765106 375 349 319.060089 349 250 C 349 180.939941 404.765137 125 473.5 125 C 542.234863 125 598 180.939941 598 250 Z"/>
        <path id="Oval-copy-3" fill="#f76d05" fill-rule="evenodd" stroke="none" d="M 117 180 C 149.032516 180 175 205.967468 175 238 C 175 270.032532 149.032516 296 117 296 C 84.967484 296 59 270.032532 59 238 C 59 205.967468 84.967484 180 117 180 Z M 140 238 C 140 250.70256 129.70256 261 117 261 C 104.29744 261 94 250.70256 94 238 C 94 225.29744 104.29744 215 117 215 C 129.70256 215 140 225.29744 140 238 Z"/>
        <path id="Oval-copy-4" fill="#ef4c01" fill-rule="evenodd" stroke="none" d="M 210.5 296 C 248.883789 296 280 327.116211 280 365.5 C 280 403.883789 248.883789 435 210.5 435 C 172.116211 435 141 403.883789 141 365.5 C 141 327.116211 172.116211 296 210.5 296 Z M 245 365.5 C 245 384.553833 229.553818 400 210.5 400 C 191.446182 400 176 384.553833 176 365.5 C 176 346.446167 191.446182 331 210.5 331 C 229.553818 331 245 346.446167 245 365.5 Z"/>
        <path id="Oval" fill="#df7500" fill-rule="evenodd" stroke="none" d="M 256 0 C 397.384888 0 512 114.615112 512 256 C 512 397.384888 397.384888 512 256 512 C 114.615105 512 0 397.384888 0 256 C 0 114.615112 114.615105 0 256 0 Z M 477 256 C 477 378.054932 378.054932 477 256 477 C 133.945068 477 35 378.054932 35 256 C 35 133.945068 133.945068 35 256 35 C 378.054932 35 477 133.945084 477 256 Z"/>
    </g>
</svg>
