<?xml version="1.0" encoding="UTF-8"?>
<!-- Generated by Pixelmator Pro 3.7 -->
<svg width="1920" height="1080" viewBox="0 0 1920 1080" xmlns="http://www.w3.org/2000/svg">
    <path id="Rectangle" fill="#140027" fill-rule="evenodd" stroke="none" d="M 0 1080 L 1920 1080 L 1920 0 L 0 0 Z"/>
    <filter id="filter1" x="0" y="0" width="1920" height="1080" filterUnits="userSpaceOnUse" primitiveUnits="userSpaceOnUse" color-interpolation-filters="sRGB">
        <feGaussianBlur stdDeviation="100"/>
    </filter>
    <path id="Path" fill="#6f1aff" fill-rule="evenodd" stroke="none" opacity="0.08" filter="url(#filter1)" d="M -135 180 C -135 180 -106.907707 103.240845 348 433 C 802.907715 762.759155 767 987 767 987 L 449 1351 L -173 1009 L -135 180 Z"/>
    <filter id="filter2" x="0" y="0" width="1920" height="1080" filterUnits="userSpaceOnUse" primitiveUnits="userSpaceOnUse" color-interpolation-filters="sRGB">
        <feGaussianBlur stdDeviation="100"/>
    </filter>
    <path id="path1" fill="#1a50ff" fill-rule="evenodd" stroke="none" opacity="0.08" filter="url(#filter2)" d="M 1190 796 C 1190 796 1196.759277 680.51001 1407 629 C 1617.240723 577.490051 1834.265015 627.500732 1840 626 C 1845.734985 624.499268 2078.46582 810.357178 1781 917 C 1483.534058 1023.642822 1713 1066 1713 1066 L 1457 1194 L 1164 1009 L 1190 796 Z"/>
    <filter id="filter3" x="0" y="0" width="1920" height="1080" filterUnits="userSpaceOnUse" primitiveUnits="userSpaceOnUse" color-interpolation-filters="sRGB">
        <feGaussianBlur stdDeviation="100"/>
    </filter>
    <path id="path2" fill="#6f1aff" fill-rule="evenodd" stroke="none" opacity="0.08" filter="url(#filter3)" d="M 514 235 C 514 235 381.09082 322.933655 705 373 C 1028.90918 423.066345 1211 355 1211 355 C 1211 355 1329.398315 277.217834 1481 300 C 1632.601685 322.782166 1577.443359 172.253723 1548 157 C 1518.556641 141.746277 1308 68 1308 68 C 1308 68 1122.790894 11.163452 960 63 C 797.209106 114.836548 596.102783 8.256714 554 51 C 511.897247 93.743286 512 94 512 94 L 514 235 Z"/>
    <g id="AppBackground" opacity="0.8">
        <g id="Group">
            <path id="path3" fill="#fefffe" fill-rule="evenodd" stroke="none" opacity="0.497" d="M 1786 7 C 1792.140015 7.526245 1793.47998 10.359497 1790 15.5 C 1786.51001 16.36145 1784.170044 15.028076 1783 11.5 C 1783.890015 9.885254 1784.890015 8.385254 1786 7 Z"/>
        </g>
        <g id="g1">
            <path id="path4" fill="#fefffe" fill-rule="evenodd" stroke="none" opacity="0.232" d="M 503 10 C 506.661011 9.850098 507.661011 11.350098 506 14.5 C 502.207001 14.986572 501.207001 13.486572 503 10 Z"/>
        </g>
        <g id="g2">
            <path id="path5" fill="#fefffe" fill-rule="evenodd" stroke="none" opacity="0.305" d="M 1431 27 C 1432.329956 27 1433.670044 27 1435 27 C 1435 28.333252 1435 29.666748 1435 31 C 1433.670044 31 1432.329956 31 1431 31 C 1431 29.666748 1431 28.333252 1431 27 Z"/>
        </g>
        <g id="g3">
            <path id="path6" fill="#fefffe" fill-rule="evenodd" stroke="none" opacity="0.324" d="M 337 39 C 340.410004 38.883789 341.743988 40.550415 341 44 C 336.565002 44.577637 335.231995 42.910889 337 39 Z"/>
        </g>
        <g id="g4">
            <path id="path7" fill="#fefffe" fill-rule="evenodd" stroke="none" opacity="0.271" d="M 122 45 C 126.548996 45.432251 127.048996 47.098877 123.5 50 C 120.990997 48.847046 120.490997 47.180298 122 45 Z"/>
        </g>
        <g id="g5">
            <path id="path8" fill="#fefffe" fill-rule="evenodd" stroke="none" opacity="0.497" d="M 771 60 C 776.164978 60.993591 777.497986 63.660278 775 68 C 771.059021 69.937378 768.726013 68.770691 768 64.5 C 768.057007 62.291077 769.057007 60.791077 771 60 Z"/>
        </g>
        <g id="g6">
            <path id="path9" fill="#fefffe" fill-rule="evenodd" stroke="none" opacity="0.497" d="M 1748 68 C 1753.98999 67.477295 1755.98999 69.977295 1754 75.5 C 1750.400024 77.380493 1747.73999 76.380493 1746 72.5 C 1746.77002 71.02948 1747.430054 69.52948 1748 68 Z"/>
        </g>
        <g id="g7">
            <path id="path10" fill="#fefffe" fill-rule="evenodd" stroke="none" opacity="0.506" d="M 921 72 C 925.512024 72.368896 927.012024 74.702209 925.5 79 C 921.627991 81.988708 918.794983 81.155396 917 76.5 C 917.856995 74.481201 919.190979 72.981201 921 72 Z"/>
        </g>
        <g id="g8">
            <path id="path11" fill="#fefffe" fill-rule="evenodd" stroke="none" opacity="0.271" d="M 42 77 C 44.164799 76.615906 45.831501 77.282593 47 79 C 45.831501 80.717407 44.164799 81.384094 42 81 C 42 79.666687 42 78.333313 42 77 Z"/>
        </g>
        <g id="g9">
            <path id="path12" fill="#fefffe" fill-rule="evenodd" stroke="none" opacity="0.48" d="M 1108 79 C 1113.73999 79.880493 1115.069946 82.713867 1112 87.5 C 1107 88.829712 1104.839966 86.996399 1105.5 82 C 1106.199951 80.809387 1107.030029 79.809387 1108 79 Z"/>
        </g>
        <g id="g10">
            <path id="path13" fill="#fefffe" fill-rule="evenodd" stroke="none" opacity="0.298" d="M 1491 79 C 1494.969971 79.5755 1495.969971 81.742126 1494 85.5 C 1492.719971 86.183777 1491.550049 86.01709 1490.5 85 C 1489.819946 82.902405 1489.98999 80.902405 1491 79 Z"/>
        </g>
        <g id="g11">
            <path id="path14" fill="#fefffe" fill-rule="evenodd" stroke="none" opacity="0.257" d="M 1282 83 C 1287.22998 82.783875 1288.060059 84.450623 1284.5 88 C 1282.609985 86.882568 1281.77002 85.215881 1282 83 Z"/>
        </g>
        <g id="g12">
            <path id="path15" fill="#fefffe" fill-rule="evenodd" stroke="none" opacity="0.497" d="M 1313 100 C 1316.48999 99.651001 1318.819946 101.151001 1320 104.5 C 1318.140015 109.169983 1315.310059 110.002991 1311.5 107 C 1310.670044 104.328979 1311.170044 101.995972 1313 100 Z"/>
        </g>
        <g id="g13">
            <path id="path16" fill="#fefffe" fill-rule="evenodd" stroke="none" opacity="0.31" d="M 625 105 C 628.638 104.237 630.138 105.570007 629.5 109 C 627.260986 110.369019 625.427002 109.869019 624 107.5 C 624.752014 106.828979 625.085999 105.995972 625 105 Z"/>
        </g>
        <g id="g14">
            <path id="path17" fill="#fefffe" fill-rule="evenodd" stroke="none" opacity="0.305" d="M 1550 108 C 1552.670044 107.565979 1553.829956 108.565979 1553.5 111 C 1549.900024 112.565979 1548.73999 111.565979 1550 108 Z"/>
        </g>
        <g id="g15">
            <path id="path18" fill="#fefffe" fill-rule="evenodd" stroke="none" opacity="0.514" d="M 393 110 C 397.993988 109.828979 399.828003 112.161987 398.5 117 C 394.513 119.757019 392.013 118.757019 391 114 C 391.303009 112.385986 391.970001 111.052002 393 110 Z"/>
        </g>
        <g id="g16">
            <path id="path19" fill="#fefffe" fill-rule="evenodd" stroke="none" opacity="0.505" d="M 178 117 C 184.503998 116.638 186.171005 119.138 183 124.5 C 176.244995 125.255981 174.578003 122.755981 178 117 Z"/>
        </g>
        <g id="g17">
            <path id="path20" fill="#fefffe" fill-rule="evenodd" stroke="none" opacity="0.521" d="M 1528 121 C 1535.099976 120.572998 1537.099976 123.406982 1534 129.5 C 1527.52002 131.667969 1524.689941 129.500977 1525.5 123 C 1526.48999 122.434021 1527.329956 121.766968 1528 121 Z"/>
        </g>
        <g id="g18">
            <path id="path21" fill="#fefffe" fill-rule="evenodd" stroke="none" opacity="0.272" d="M 1085 134 C 1086.329956 134 1087.670044 134 1089 134 C 1089 135.333008 1089 136.666992 1089 138 C 1085.060059 138.734009 1083.72998 137.401001 1085 134 Z"/>
        </g>
        <g id="g19">
            <path id="path22" fill="#fefffe" fill-rule="evenodd" stroke="none" opacity="0.257" d="M 987 145 C 990.661011 144.849976 991.661011 146.349976 990 149.5 C 986.622986 149.580017 985.622986 148.080017 987 145 Z"/>
        </g>
        <g id="g20">
            <path id="path23" fill="#fefffe" fill-rule="evenodd" stroke="none" opacity="0.318" d="M 547 147 C 550.934998 149.051025 550.934998 151.384033 547 154 C 545.666992 153.333008 544.666992 152.333008 544 151 C 545.023987 149.64801 546.023987 148.315002 547 147 Z"/>
        </g>
        <g id="g21">
            <path id="path24" fill="#fefffe" fill-rule="evenodd" stroke="none" opacity="0.271" d="M 749 151 C 752.734009 152.473999 752.900024 154.140015 749.5 156 C 746.427002 154.752014 746.26001 153.085022 749 151 Z"/>
        </g>
        <g id="g22">
            <path id="path25" fill="#fefffe" fill-rule="evenodd" stroke="none" opacity="0.465" d="M 689 158 C 694.987 157.47699 696.987 159.97699 695 165.5 C 691.093994 167.864014 688.427979 166.864014 687 162.5 C 687.544006 160.914978 688.210999 159.414978 689 158 Z"/>
        </g>
        <g id="g23">
            <path id="path26" fill="#fefffe" fill-rule="evenodd" stroke="none" opacity="0.272" d="M 1280 174 C 1284.550049 174.432007 1285.050049 176.098999 1281.5 179 C 1278.98999 177.846985 1278.48999 176.179993 1280 174 Z"/>
        </g>
        <g id="g24">
            <path id="path27" fill="#fefffe" fill-rule="evenodd" stroke="none" opacity="0.257" d="M 1271 176 C 1273.98999 176.447998 1274.98999 177.947998 1274 180.5 C 1270.209961 180.987 1269.209961 179.487 1271 176 Z"/>
        </g>
        <g id="g25">
            <path id="path28" fill="#fefffe" fill-rule="evenodd" stroke="none" opacity="0.506" d="M 1676 180 C 1682.140015 180.526001 1683.47998 183.359985 1680 188.5 C 1675 189.164001 1673.170044 186.997986 1674.5 182 C 1675.219971 181.455994 1675.719971 180.789001 1676 180 Z"/>
        </g>
        <g id="g26">
            <path id="path29" fill="#fefffe" fill-rule="evenodd" stroke="none" opacity="0.539" d="M 819 184 C 824.330017 185.153015 825.663025 187.985962 823 192.5 C 817.513977 194.325012 815.013977 192.492004 815.5 187 C 816.484985 185.686035 817.651978 184.686035 819 184 Z"/>
        </g>
        <g id="g27">
            <path id="path30" fill="#fefffe" fill-rule="evenodd" stroke="none" opacity="0.489" d="M 1039 185 C 1044.72998 184.504028 1046.569946 186.837036 1044.5 192 C 1042.170044 194.666992 1039.829956 194.666992 1037.5 192 C 1036.670044 189.328979 1037.170044 186.995972 1039 185 Z"/>
        </g>
        <g id="g28">
            <path id="path31" fill="#fefffe" fill-rule="evenodd" stroke="none" opacity="0.272" d="M 379 188 C 380.333008 188 381.666992 188 383 188 C 383 189.333008 383 190.666992 383 192 C 379.059998 192.734009 377.72699 191.401001 379 188 Z"/>
        </g>
        <g id="g29">
            <path id="path32" fill="#fefffe" fill-rule="evenodd" stroke="none" opacity="0.257" d="M 297 194 C 301.839996 194.687988 302.173004 196.35498 298 199 C 295.79599 197.718018 295.462006 196.051025 297 194 Z"/>
        </g>
        <g id="g30">
            <path id="path33" fill="#fefffe" fill-rule="evenodd" stroke="none" opacity="0.506" d="M 694 196 C 699.075012 195.679993 700.90802 198.014038 699.5 203 C 695.513 205.757019 693.013 204.757019 692 200 C 692.302979 198.385986 692.969971 197.052002 694 196 Z"/>
        </g>
        <g id="g31">
            <path id="path34" fill="#fefffe" fill-rule="evenodd" stroke="none" opacity="0.257" d="M 858 205 C 861.661011 204.849976 862.661011 206.349976 861 209.5 C 857.77301 209.44397 856.77301 207.94397 858 205 Z"/>
        </g>
        <g id="g32">
            <path id="path35" fill="#fefffe" fill-rule="evenodd" stroke="none" opacity="0.497" d="M 455 212 C 459.993988 211.828979 461.828003 214.161987 460.5 219 C 456.615997 222.041016 453.78299 221.207031 452 216.5 C 452.721985 214.749023 453.721985 213.249023 455 212 Z"/>
        </g>
        <g id="g33">
            <path id="path36" fill="#fefffe" fill-rule="evenodd" stroke="none" opacity="0.244" d="M 67 214 C 71.7183 214.81897 72.051598 216.485962 68 219 C 65.7957 217.718018 65.462402 216.051025 67 214 Z"/>
        </g>
        <g id="g34">
            <path id="path37" fill="#fefffe" fill-rule="evenodd" stroke="none" opacity="0.473" d="M 1358 214 C 1364.98999 214.476013 1366.329956 217.309021 1362 222.5 C 1357 223.164001 1355.170044 220.997986 1356.5 216 C 1357.219971 215.455994 1357.719971 214.789001 1358 214 Z"/>
        </g>
        <g id="g35">
            <path id="path38" fill="#fefffe" fill-rule="evenodd" stroke="none" opacity="0.358" d="M 1117 219 C 1118.329956 219 1119.670044 219 1121 219 C 1121 220.666992 1121 222.333008 1121 224 C 1119.670044 224 1118.329956 224 1117 224 C 1117 222.333008 1117 220.666992 1117 219 Z"/>
        </g>
        <g id="g36">
            <path id="path39" fill="#fefffe" fill-rule="evenodd" stroke="none" opacity="0.257" d="M 1457 230 C 1458.699951 230.184998 1460.030029 231.018982 1461 232.5 C 1459.880005 234.391968 1458.219971 235.224976 1456 235 C 1455.869995 233.208008 1456.199951 231.541992 1457 230 Z"/>
        </g>
        <g id="g37">
            <path id="path40" fill="#fefffe" fill-rule="evenodd" stroke="none" opacity="0.271" d="M 179 233 C 182.733994 234.473999 182.899994 236.140015 179.5 238 C 176.427002 236.752014 176.259995 235.085022 179 233 Z"/>
        </g>
        <g id="g38">
            <path id="path41" fill="#fefffe" fill-rule="evenodd" stroke="none" opacity="0.271" d="M 1835 234 C 1836.329956 234 1837.670044 234 1839 234 C 1839 235.333008 1839 236.666992 1839 238 C 1835.060059 238.734009 1833.72998 237.401001 1835 234 Z"/>
        </g>
        <g id="g39">
            <path id="path42" fill="#fefffe" fill-rule="evenodd" stroke="none" opacity="0.48" d="M 1052 236 C 1057.829956 236.833008 1059.170044 239.666016 1056 244.5 C 1051.050049 245.875977 1048.880005 244.041992 1049.5 239 C 1050.540039 238.127014 1051.380005 237.127014 1052 236 Z"/>
        </g>
        <g id="g40">
            <path id="path43" fill="#fefffe" fill-rule="evenodd" stroke="none" opacity="0.587" d="M 1809 241 C 1811.290039 240.744019 1813.459961 241.077026 1815.5 242 C 1816.170044 245.333008 1816.170044 248.666992 1815.5 252 C 1812.829956 254.666992 1810.170044 254.666992 1807.5 252 C 1806.73999 248.138 1807.23999 244.471985 1809 241 Z"/>
        </g>
        <g id="g41">
            <path id="path44" fill="#fefffe" fill-rule="evenodd" stroke="none" opacity="0.489" d="M 224 255 C 230.151001 255.603027 231.483994 258.436035 228 263.5 C 220.867996 263.403015 219.535004 260.570007 224 255 Z"/>
        </g>
        <g id="g42">
            <path id="path45" fill="#fefffe" fill-rule="evenodd" stroke="none" opacity="0.473" d="M 788 257 C 792.958984 256.127991 795.125 258.127991 794.5 263 C 792.218018 266.541016 789.551025 266.874023 786.5 264 C 785.666992 261.328979 786.166992 258.995972 788 257 Z"/>
        </g>
        <g id="g43">
            <path id="path46" fill="#fefffe" fill-rule="evenodd" stroke="none" opacity="0.465" d="M 572 267 C 577.835022 267.833008 579.16803 270.666016 576 275.5 C 571.002014 276.829956 568.835999 274.995972 569.5 270 C 570.197998 268.80896 571.031006 267.80896 572 267 Z"/>
        </g>
        <g id="g44">
            <path id="path47" fill="#fefffe" fill-rule="evenodd" stroke="none" opacity="0.257" d="M 1413 267 C 1414.329956 267 1415.670044 267 1417 267 C 1417.219971 272.22699 1415.550049 273.059998 1412 269.5 C 1412.75 268.828979 1413.089966 267.995972 1413 267 Z"/>
        </g>
        <g id="g45">
            <path id="path48" fill="#fefffe" fill-rule="evenodd" stroke="none" opacity="0.497" d="M 1613 268 C 1618.089966 269.540039 1619.089966 272.374023 1616 276.5 C 1611 277.829956 1608.839966 275.995972 1609.5 271 C 1610.650024 269.864014 1611.810059 268.864014 1613 268 Z"/>
        </g>
        <g id="g46">
            <path id="path49" fill="#fefffe" fill-rule="evenodd" stroke="none" opacity="0.473" d="M 1178 270 C 1184.140015 270.526001 1185.47998 273.359985 1182 278.5 C 1174.839966 278.355957 1173.51001 275.52301 1178 270 Z"/>
        </g>
        <g id="g47">
            <path id="path50" fill="#fefffe" fill-rule="evenodd" stroke="none" opacity="0.272" d="M 1813 272 C 1815.579956 272.547974 1816.579956 274.214966 1816 277 C 1814.670044 277 1813.329956 277 1812 277 C 1811.869995 275.208008 1812.199951 273.541992 1813 272 Z"/>
        </g>
        <g id="g48">
            <path id="path51" fill="#fefffe" fill-rule="evenodd" stroke="none" opacity="0.481" d="M 1453 293 C 1459.140015 293.526001 1460.47998 296.359985 1457 301.5 C 1449.900024 301.252014 1448.569946 298.419006 1453 293 Z"/>
        </g>
        <g id="g49">
            <path id="path52" fill="#fefffe" fill-rule="evenodd" stroke="none" opacity="0.506" d="M 929 316 C 933.61499 317.705994 934.61499 320.540039 932 324.5 C 927.002014 325.829956 924.835999 323.995972 925.5 319 C 926.484985 317.686035 927.651978 316.686035 929 316 Z"/>
        </g>
        <g id="g50">
            <path id="path53" fill="#fefffe" fill-rule="evenodd" stroke="none" opacity="0.325" d="M 397 322 C 398.333008 322 399.666992 322 401 322 C 401 323.666992 401 325.333008 401 327 C 396.963989 327.218018 395.630005 325.551025 397 322 Z"/>
        </g>
        <g id="g51">
            <path id="path54" fill="#fefffe" fill-rule="evenodd" stroke="none" opacity="0.472" d="M 59 325 C 65.7248 324.703979 67.391502 327.370972 64 333 C 57.3508 333.721008 55.684101 331.054993 59 325 Z"/>
        </g>
        <g id="g52">
            <path id="path55" fill="#fefffe" fill-rule="evenodd" stroke="none" opacity="0.257" d="M 1098 326 C 1099.75 325.917969 1100.75 326.750977 1101 328.5 C 1099.630005 331.56897 1097.959961 331.735962 1096 329 C 1096.689941 327.981995 1097.359985 326.981995 1098 326 Z"/>
        </g>
        <g id="g53">
            <path id="path56" fill="#fefffe" fill-rule="evenodd" stroke="none" opacity="0.54" d="M 226 329 C 232.985992 328.830994 234.653 331.664001 231 337.5 C 223.916 337.974976 222.248993 335.141968 226 329 Z"/>
        </g>
        <g id="g54">
            <path id="path57" fill="#fefffe" fill-rule="evenodd" stroke="none" opacity="0.244" d="M 557 336 C 562.505005 338.671021 562.171021 340.338013 556 341 C 555.866028 339.208008 556.198975 337.541992 557 336 Z"/>
        </g>
        <g id="g55">
            <path id="path58" fill="#fefffe" fill-rule="evenodd" stroke="none" opacity="0.516" d="M 423 341 C 429.071991 342.212036 430.404999 345.377991 427 350.5 C 421.640991 351.643005 419.473999 349.476013 420.5 344 C 421.197998 342.80896 422.031006 341.80896 423 341 Z"/>
        </g>
        <g id="g56">
            <path id="path59" fill="#fefffe" fill-rule="evenodd" stroke="none" opacity="0.306" d="M 669 361 C 671.666016 360.56604 672.833008 361.56604 672.5 364 C 668.903015 365.56604 667.737 364.56604 669 361 Z"/>
        </g>
        <g id="g57">
            <path id="path60" fill="#fefffe" fill-rule="evenodd" stroke="none" opacity="0.481" d="M 859 366 C 864.06897 367.450989 865.06897 370.283997 862 374.5 C 857.002014 375.829956 854.835999 373.995972 855.5 369 C 856.64502 367.864014 857.812012 366.864014 859 366 Z"/>
        </g>
        <g id="g58">
            <path id="path61" fill="#fefffe" fill-rule="evenodd" stroke="none" opacity="0.257" d="M 1260 374 C 1262.26001 374.843994 1263.26001 376.510986 1263 379 C 1258.02002 379.355957 1257.02002 377.688965 1260 374 Z"/>
        </g>
        <g id="g59">
            <path id="path62" fill="#fefffe" fill-rule="evenodd" stroke="none" opacity="0.506" d="M 1053 393 C 1059.140015 393.526001 1060.47998 396.359985 1057 401.5 C 1052 402.164001 1050.170044 399.997986 1051.5 395 C 1052.219971 394.455994 1052.719971 393.789001 1053 393 Z"/>
        </g>
        <g id="g60">
            <path id="path63" fill="#fefffe" fill-rule="evenodd" stroke="none" opacity="0.276" d="M 270 407 C 273.850006 407.200989 274.850006 409.033997 273 412.5 C 269.036987 412.618042 268.036987 410.783997 270 407 Z"/>
        </g>
        <g id="g61">
            <path id="path64" fill="#fefffe" fill-rule="evenodd" stroke="none" opacity="0.48" d="M 1325 407 C 1330.73999 407.880981 1332.069946 410.713989 1329 415.5 C 1324 416.829956 1321.839966 414.995972 1322.5 410 C 1323.199951 408.80896 1324.030029 407.80896 1325 407 Z"/>
        </g>
        <g id="g62">
            <path id="path65" fill="#fefffe" fill-rule="evenodd" stroke="none" opacity="0.481" d="M 1515 407 C 1520.849976 407.963013 1522.180054 410.796997 1519 415.5 C 1514 416.829956 1511.839966 414.995972 1512.5 410 C 1513.199951 408.80896 1514.030029 407.80896 1515 407 Z"/>
        </g>
        <g id="g63">
            <path id="path66" fill="#fefffe" fill-rule="evenodd" stroke="none" opacity="0.566" d="M 356 413 C 362.700989 412.948975 364.700989 415.781982 362 421.5 C 354.248993 422.591003 352.248993 419.757996 356 413 Z"/>
        </g>
        <g id="g64">
            <path id="path67" fill="#fefffe" fill-rule="evenodd" stroke="none" opacity="0.473" d="M 1656 416 C 1661.98999 415.47699 1663.98999 417.97699 1662 423.5 C 1658.98999 425.721985 1656.48999 425.221985 1654.5 422 C 1654.089966 419.804993 1654.589966 417.804993 1656 416 Z"/>
        </g>
        <g id="g65">
            <path id="path68" fill="#fefffe" fill-rule="evenodd" stroke="none" opacity="0.472" d="M 593 417 C 597.994019 416.828979 599.828003 419.161987 598.5 424 C 594.546997 427.015991 591.713989 426.182983 590 421.5 C 590.45697 419.559998 591.45697 418.059998 593 417 Z"/>
        </g>
        <g id="g66">
            <path id="path69" fill="#fefffe" fill-rule="evenodd" stroke="none" opacity="0.257" d="M 812 419 C 814.987 419.447998 815.987 420.947998 815 423.5 C 811.20697 423.987 810.20697 422.487 812 419 Z"/>
        </g>
        <g id="g67">
            <path id="path70" fill="#fefffe" fill-rule="evenodd" stroke="none" opacity="0.272" d="M 1475 424 C 1478.849976 424.200989 1479.849976 426.033997 1478 429.5 C 1474.040039 429.618042 1473.040039 427.783997 1475 424 Z"/>
        </g>
        <g id="g68">
            <path id="path71" fill="#fefffe" fill-rule="evenodd" stroke="none" opacity="0.473" d="M 1376 437 C 1382.719971 436.703979 1384.390015 439.370972 1381 445 C 1378.25 446.474976 1376.089966 445.80896 1374.5 443 C 1373.75 440.660034 1374.25 438.660034 1376 437 Z"/>
        </g>
        <g id="g69">
            <path id="path72" fill="#fefffe" fill-rule="evenodd" stroke="none" opacity="0.49" d="M 1791 439 C 1797.780029 438.125977 1799.780029 440.625977 1797 446.5 C 1790.25 447.968994 1788.25 445.468994 1791 439 Z"/>
        </g>
        <g id="g70">
            <path id="path73" fill="#fefffe" fill-rule="evenodd" stroke="none" opacity="0.257" d="M 185 440 C 187.584 440.547974 188.584 442.214966 188 445 C 183.466995 444.920044 182.466995 443.254028 185 440 Z"/>
        </g>
        <g id="g71">
            <path id="path74" fill="#fefffe" fill-rule="evenodd" stroke="none" opacity="0.271" d="M 463 445 C 467.43399 446.057983 467.766998 447.724976 464 450 C 461.79599 448.718018 461.462006 447.051025 463 445 Z"/>
        </g>
        <g id="g72">
            <path id="path75" fill="#fefffe" fill-rule="evenodd" stroke="none" opacity="0.271" d="M 603 454 C 604.333008 454 605.666992 454 607 454 C 607 455.333008 607 456.666992 607 458 C 603.059998 458.734009 601.72699 457.401001 603 454 Z"/>
        </g>
        <g id="g73">
            <path id="path76" fill="#fefffe" fill-rule="evenodd" stroke="none" opacity="0.272" d="M 901 456 C 902.333008 456 903.666992 456 905 456 C 905 457.333008 905 458.666992 905 460 C 901.059998 460.734009 899.72699 459.401001 901 456 Z"/>
        </g>
        <g id="g74">
            <path id="path77" fill="#fefffe" fill-rule="evenodd" stroke="none" opacity="0.473" d="M 650 459 C 655.987 458.47699 657.987 460.97699 656 466.5 C 652.98999 468.721985 650.48999 468.221985 648.5 465 C 648.091003 462.804993 648.591003 460.804993 650 459 Z"/>
        </g>
        <g id="g75">
            <path id="path78" fill="#fefffe" fill-rule="evenodd" stroke="none" opacity="0.489" d="M 1178 467 C 1183.290039 468.266968 1184.290039 471.099976 1181 475.5 C 1177.369995 476.81604 1175.040039 475.648987 1174 472 C 1174.660034 469.684998 1175.98999 468.019043 1178 467 Z"/>
        </g>
        <g id="g76">
            <path id="path79" fill="#fefffe" fill-rule="evenodd" stroke="none" opacity="0.31" d="M 356 468 C 360 467.333008 361.666992 469 361 473 C 357 473.666992 355.333008 472 356 468 Z"/>
        </g>
        <g id="g77">
            <path id="path80" fill="#fefffe" fill-rule="evenodd" stroke="none" opacity="0.381" d="M 92 474 C 94.987198 474.447998 95.987 475.947998 95 478.5 C 91.2071 478.987 90.2071 477.487 92 474 Z"/>
        </g>
        <g id="g78">
            <path id="path81" fill="#fefffe" fill-rule="evenodd" stroke="none" opacity="0.272" d="M 1394 501 C 1395.329956 501 1396.670044 501 1398 501 C 1398.380005 503.165039 1397.719971 504.832031 1396 506 C 1394.280029 504.832031 1393.619995 503.165039 1394 501 Z"/>
        </g>
        <g id="g79">
            <path id="path82" fill="#fefffe" fill-rule="evenodd" stroke="none" opacity="0.287" d="M 551 507 C 553.583984 507.547974 554.583984 509.215027 554 512 C 550.216003 511.974976 549.216003 510.307983 551 507 Z"/>
        </g>
        <g id="g80">
            <path id="path83" fill="#fefffe" fill-rule="evenodd" stroke="none" opacity="0.473" d="M 1012 513 C 1018.719971 512.703979 1020.390015 515.370972 1017 521 C 1014.25 522.474976 1012.090027 521.809021 1010.5 519 C 1009.75 516.659973 1010.25 514.659973 1012 513 Z"/>
        </g>
        <g id="g81">
            <path id="path84" fill="#fefffe" fill-rule="evenodd" stroke="none" opacity="0.497" d="M 1135 521 C 1138.660034 520.494995 1141 521.994995 1142 525.5 C 1140.219971 530.20697 1137.380005 531.041016 1133.5 528 C 1132.670044 525.328979 1133.170044 522.995972 1135 521 Z"/>
        </g>
        <g id="g82">
            <path id="path85" fill="#fefffe" fill-rule="evenodd" stroke="none" opacity="0.257" d="M 830 525 C 834.840027 525.687988 835.172974 527.35498 831 530 C 828.796021 528.718018 828.461975 527.051025 830 525 Z"/>
        </g>
        <g id="g83">
            <path id="path86" fill="#fefffe" fill-rule="evenodd" stroke="none" opacity="0.562" d="M 59 548 C 65.550598 547.367004 68.050598 550.367004 66.5 557 C 63.833298 561 61.166702 561 58.5 557 C 57.764198 553.90802 57.930901 550.90802 59 548 Z"/>
        </g>
        <g id="g84">
            <path id="path87" fill="#fefffe" fill-rule="evenodd" stroke="none" opacity="0.232" d="M 707 548 C 710.661011 547.849976 711.661011 549.349976 710 552.5 C 706.20697 552.987 705.20697 551.487 707 548 Z"/>
        </g>
        <g id="g85">
            <path id="path88" fill="#fefffe" fill-rule="evenodd" stroke="none" opacity="0.244" d="M 256 566 C 257.372986 565.843018 258.707001 566.01001 260 566.5 C 260.973999 569.202026 259.973999 570.534973 257 570.5 C 256.119995 569.143982 255.786011 567.643982 256 566 Z"/>
        </g>
        <g id="g86">
            <path id="path89" fill="#fefffe" fill-rule="evenodd" stroke="none" opacity="0.257" d="M 1273 567 C 1278.079956 567.466003 1278.75 569.132019 1275 572 C 1273.280029 570.83197 1272.619995 569.164978 1273 567 Z"/>
        </g>
        <g id="g87">
            <path id="path90" fill="#fefffe" fill-rule="evenodd" stroke="none" opacity="0.258" d="M 426 573 C 428.987 573.447998 429.987 574.947998 429 577.5 C 425.207001 577.987 424.207001 576.487 426 573 Z"/>
        </g>
        <g id="g88">
            <path id="path91" fill="#fefffe" fill-rule="evenodd" stroke="none" opacity="0.233" d="M 262 578 C 265.661011 577.849976 266.661011 579.349976 265 582.5 C 261.207001 582.987 260.207001 581.487 262 578 Z"/>
        </g>
        <g id="g89">
            <path id="path92" fill="#fefffe" fill-rule="evenodd" stroke="none" opacity="0.506" d="M 452 582 C 457.987 581.47699 459.987 583.97699 458 589.5 C 451.040009 590.716003 449.040009 588.216003 452 582 Z"/>
        </g>
        <g id="g90">
            <path id="path93" fill="#fefffe" fill-rule="evenodd" stroke="none" opacity="0.272" d="M 1062 583 C 1066.180054 583.940002 1066.680054 585.606995 1063.5 588 C 1060.890015 587 1060.390015 585.333008 1062 583 Z"/>
        </g>
        <g id="g91">
            <path id="path94" fill="#fefffe" fill-rule="evenodd" stroke="none" opacity="0.457" d="M 249 585 C 251.447998 584.585022 252.781006 585.585022 253 588 C 251.664001 590.508972 250.830002 593.176025 250.5 596 C 248.302994 598.231018 245.970001 598.231018 243.5 596 C 241.787003 591.301025 243.287003 588.968018 248 589 C 247.932999 587.541016 248.266006 586.208008 249 585 Z"/>
        </g>
        <g id="g92">
            <path id="path95" fill="#fefffe" fill-rule="evenodd" stroke="none" opacity="0.473" d="M 845 586 C 851.151001 586.603027 852.484009 589.435974 849 594.5 C 844.044983 595.875977 841.879028 594.041992 842.5 589 C 843.544983 588.127014 844.377991 587.127014 845 586 Z"/>
        </g>
        <g id="g93">
            <path id="path96" fill="#fefffe" fill-rule="evenodd" stroke="none" opacity="0.509" d="M 1776 586 C 1781.22998 586.705994 1782.72998 589.372009 1780.5 594 C 1776.550049 597.015991 1773.709961 596.182983 1772 591.5 C 1772.51001 588.955017 1773.839966 587.120972 1776 586 Z"/>
        </g>
        <g id="g94">
            <path id="path97" fill="#fefffe" fill-rule="evenodd" stroke="none" opacity="0.464" d="M 1373 587 C 1379.339966 587.041992 1381.01001 589.708984 1378 595 C 1370.910034 596.031006 1369.23999 593.364014 1373 587 Z"/>
        </g>
        <g id="g95">
            <path id="path98" fill="#fefffe" fill-rule="evenodd" stroke="none" opacity="0.539" d="M 1626 599 C 1632.209961 598.541016 1634.209961 601.208008 1632 607 C 1627.5 609.151978 1624.829956 607.81897 1624 603 C 1624.25 601.427002 1624.920044 600.093994 1626 599 Z"/>
        </g>
        <g id="g96">
            <path id="path99" fill="#fefffe" fill-rule="evenodd" stroke="none" opacity="0.473" d="M 1576 609 C 1581.73999 609.880981 1583.069946 612.713989 1580 617.5 C 1574.5 618.666992 1572.329956 616.5 1573.5 611 C 1574.48999 610.434021 1575.329956 609.767029 1576 609 Z"/>
        </g>
        <g id="g97">
            <path id="path100" fill="#fefffe" fill-rule="evenodd" stroke="none" opacity="0.271" d="M 1055 628 C 1056.329956 628 1057.670044 628 1059 628 C 1059 629.333008 1059 630.666992 1059 632 C 1055.060059 632.734009 1053.72998 631.401001 1055 628 Z"/>
        </g>
        <g id="g98">
            <path id="path101" fill="#fefffe" fill-rule="evenodd" stroke="none" opacity="0.271" d="M 704 630 C 705.752014 629.91803 706.752014 630.750977 707 632.5 C 705.447021 635.78302 703.781006 635.78302 702 632.5 C 702.880981 631.791992 703.546997 630.958008 704 630 Z"/>
        </g>
        <g id="g99">
            <path id="path102" fill="#fefffe" fill-rule="evenodd" stroke="none" opacity="0.506" d="M 126 632 C 132.143005 632.526001 133.475998 635.359985 130 640.5 C 125.003998 641.164001 123.169998 638.997986 124.5 634 C 125.216995 633.455994 125.716995 632.789001 126 632 Z"/>
        </g>
        <g id="g100">
            <path id="path103" fill="#fefffe" fill-rule="evenodd" stroke="none" opacity="0.272" d="M 1298 639 C 1301.52002 640.617981 1301.680054 642.284973 1298.5 644 C 1295.430054 642.619019 1295.26001 640.952026 1298 639 Z"/>
        </g>
        <g id="g101">
            <path id="path104" fill="#fefffe" fill-rule="evenodd" stroke="none" opacity="0.257" d="M 449 643 C 450.752014 642.91803 451.752014 643.750977 452 645.5 C 450.625 648.56897 448.959015 648.736023 447 646 C 447.692993 644.981995 448.359009 643.981995 449 643 Z"/>
        </g>
        <g id="g102">
            <path id="path105" fill="#fefffe" fill-rule="evenodd" stroke="none" opacity="0.481" d="M 936 644 C 941.000977 643.171021 943.16803 645.171021 942.5 650 C 938.520996 654.262024 935.687012 653.594971 934 648 C 934.252014 646.427002 934.91803 645.093994 936 644 Z"/>
        </g>
        <g id="g103">
            <path id="path106" fill="#fefffe" fill-rule="evenodd" stroke="none" opacity="0.49" d="M 603 645 C 608.987 644.47699 610.987 646.97699 609 652.5 C 605.156006 654.41803 602.48999 653.250977 601 649 C 601.679993 647.640015 602.346985 646.307007 603 645 Z"/>
        </g>
        <g id="g104">
            <path id="path107" fill="#fefffe" fill-rule="evenodd" stroke="none" opacity="0.497" d="M 1114 647 C 1119.069946 648.47699 1120.069946 651.309998 1117 655.5 C 1112.050049 656.875977 1109.880005 655.041992 1110.5 650 C 1111.650024 648.864014 1112.810059 647.864014 1114 647 Z"/>
        </g>
        <g id="g105">
            <path id="path108" fill="#fefffe" fill-rule="evenodd" stroke="none" opacity="0.506" d="M 454 649 C 460.503998 648.638 462.17099 651.138 459 656.5 C 452.244995 657.255981 450.578003 654.755981 454 649 Z"/>
        </g>
        <g id="g106">
            <path id="path109" fill="#fefffe" fill-rule="evenodd" stroke="none" opacity="0.272" d="M 150 661 C 153.516006 662.617981 153.682999 664.284973 150.5 666 C 147.427994 664.619019 147.261002 662.952026 150 661 Z"/>
        </g>
        <g id="g107">
            <path id="path110" fill="#fefffe" fill-rule="evenodd" stroke="none" opacity="0.272" d="M 757 662 C 759.164978 661.616028 760.83197 662.28302 762 664 C 760.83197 665.71698 759.164978 666.383972 757 666 C 757 664.666992 757 663.333008 757 662 Z"/>
        </g>
        <g id="g108">
            <path id="path111" fill="#fefffe" fill-rule="evenodd" stroke="none" opacity="0.257" d="M 1481 669 C 1484.72998 670.473999 1484.900024 672.140015 1481.5 674 C 1478.430054 672.619019 1478.26001 670.952026 1481 669 Z"/>
        </g>
        <g id="g109">
            <path id="path112" fill="#fefffe" fill-rule="evenodd" stroke="none" opacity="0.274" d="M 459 670 C 462.638 669.237 464.138 670.570007 463.5 674 C 458.915009 675.913025 457.415009 674.578979 459 670 Z"/>
        </g>
        <g id="g110">
            <path id="path113" fill="#fefffe" fill-rule="evenodd" stroke="none" opacity="0.473" d="M 896 671 C 901.835022 671.833008 903.16803 674.666016 900 679.5 C 892.5 679.695984 891.166992 676.862976 896 671 Z"/>
        </g>
        <g id="g111">
            <path id="path114" fill="#fefffe" fill-rule="evenodd" stroke="none" opacity="0.244" d="M 1593 679 C 1596.26001 679.226013 1597.26001 680.726013 1596 683.5 C 1592.209961 683.987 1591.209961 682.487 1593 679 Z"/>
        </g>
        <g id="g112">
            <path id="path115" fill="#fefffe" fill-rule="evenodd" stroke="none" opacity="0.337" d="M 242 687 C 246.059998 686.348022 248.059998 688.015015 248 692 C 245.643005 692.163025 243.309998 691.997009 241 691.5 C 239.919006 689.789001 240.251999 688.289001 242 687 Z"/>
        </g>
        <g id="g113">
            <path id="path116" fill="#fefffe" fill-rule="evenodd" stroke="none" opacity="0.271" d="M 342 692 C 343.333008 692 344.666992 692 346 692 C 346.384003 694.164978 345.71701 695.83197 344 697 C 342.28299 695.83197 341.615997 694.164978 342 692 Z"/>
        </g>
        <g id="g114">
            <path id="path117" fill="#fefffe" fill-rule="evenodd" stroke="none" opacity="0.339" d="M 1215 699 C 1217.160034 698.616028 1218.829956 699.28302 1220 701 C 1218.579956 703.422974 1216.579956 705.088989 1214 706 C 1212.589966 705.632019 1211.589966 704.799011 1211 703.5 C 1212.540039 702.129028 1213.869995 700.629028 1215 699 Z"/>
        </g>
        <g id="g115">
            <path id="path118" fill="#fefffe" fill-rule="evenodd" stroke="none" opacity="0.118" d="M 1881 716 C 1882.109985 717.445984 1882.280029 719.112976 1881.5 721 C 1881.01001 719.366028 1880.839966 717.698975 1881 716 Z"/>
        </g>
        <g id="g116">
            <path id="path119" fill="#fefffe" fill-rule="evenodd" stroke="none" opacity="0.489" d="M 1357 721 C 1363.660034 719.843994 1365.660034 722.343994 1363 728.5 C 1356.040039 729.716003 1354.040039 727.216003 1357 721 Z"/>
        </g>
        <g id="g117">
            <path id="path120" fill="#fefffe" fill-rule="evenodd" stroke="none" opacity="0.232" d="M 602 733 C 605.661011 732.849976 606.661011 734.349976 605 737.5 C 601.20697 737.987 600.20697 736.487 602 733 Z"/>
        </g>
        <g id="g118">
            <path id="path121" fill="#fefffe" fill-rule="evenodd" stroke="none" opacity="0.489" d="M 1056 734 C 1060.98999 733.828979 1062.829956 736.161987 1061.5 741 C 1057.339966 744.114014 1054.51001 743.114014 1053 738 C 1053.670044 736.340027 1054.670044 735.007019 1056 734 Z"/>
        </g>
        <g id="g119">
            <path id="path122" fill="#fefffe" fill-rule="evenodd" stroke="none" opacity="0.464" d="M 1752 734 C 1758.719971 733.703979 1760.390015 736.370972 1757 742 C 1753.109985 743.551025 1750.77002 742.218018 1750 738 C 1750.25 736.427002 1750.920044 735.093994 1752 734 Z"/>
        </g>
        <g id="g120">
            <path id="path123" fill="#fefffe" fill-rule="evenodd" stroke="none" opacity="0.245" d="M 890 751 C 893.184998 751.221985 894.184998 752.721985 893 755.5 C 889.20697 755.987 888.20697 754.487 890 751 Z"/>
        </g>
        <g id="g121">
            <path id="path124" fill="#fefffe" fill-rule="evenodd" stroke="none" opacity="0.524" d="M 1857 757 C 1862.630005 758.424988 1863.969971 761.59198 1861 766.5 C 1855 767.492981 1852.829956 764.992981 1854.5 759 C 1855.48999 758.434021 1856.329956 757.767029 1857 757 Z"/>
        </g>
        <g id="g122">
            <path id="path125" fill="#fefffe" fill-rule="evenodd" stroke="none" opacity="0.244" d="M 209 758 C 210.332993 758 211.667007 758 213 758 C 212.964996 763.523987 211.298996 764.190979 208 760 C 208.363007 759.317017 208.695999 758.650024 209 758 Z"/>
        </g>
        <g id="g123">
            <path id="path126" fill="#fefffe" fill-rule="evenodd" stroke="none" opacity="0.506" d="M 330 766 C 335.194 767.049011 336.527008 769.716003 334 774 C 330.05899 775.937012 327.726013 774.770996 327 770.5 C 327.057007 768.291016 328.057007 766.791016 330 766 Z"/>
        </g>
        <g id="g124">
            <path id="path127" fill="#fefffe" fill-rule="evenodd" stroke="none" opacity="0.298" d="M 1503 766 C 1507.660034 766.823975 1508.160034 768.823975 1504.5 772 C 1503 771.833008 1502.170044 771 1502 769.5 C 1502.48999 768.362 1502.819946 767.195007 1503 766 Z"/>
        </g>
        <g id="g125">
            <path id="path128" fill="#fefffe" fill-rule="evenodd" stroke="none" opacity="0.497" d="M 1357 769 C 1362.709961 768.367004 1364.709961 770.700012 1363 776 C 1359.530029 778.458008 1356.869995 777.624023 1355 773.5 C 1355.540039 771.914978 1356.209961 770.414978 1357 769 Z"/>
        </g>
        <g id="g126">
            <path id="path129" fill="#fefffe" fill-rule="evenodd" stroke="none" opacity="0.497" d="M 733 770 C 738.073975 771.47699 739.073975 774.309998 736 778.5 C 731.044983 779.875977 728.879028 778.041992 729.5 773 C 730.64502 771.864014 731.812012 770.864014 733 770 Z"/>
        </g>
        <g id="g127">
            <path id="path130" fill="#fefffe" fill-rule="evenodd" stroke="none" opacity="0.257" d="M 1051 778 C 1053.98999 778.447998 1054.98999 779.947998 1054 782.5 C 1050.209961 782.987 1049.209961 781.487 1051 778 Z"/>
        </g>
        <g id="g128">
            <path id="path131" fill="#fefffe" fill-rule="evenodd" stroke="none" opacity="0.271" d="M 955 780 C 957.583984 780.547974 958.583984 782.215027 958 785 C 956.666992 785 955.333008 785 954 785 C 953.866028 783.208008 954.198975 781.541992 955 780 Z"/>
        </g>
        <g id="g129">
            <path id="path132" fill="#fefffe" fill-rule="evenodd" stroke="none" opacity="0.257" d="M 1258 781 C 1261.72998 782.473999 1261.900024 784.140015 1258.5 786 C 1255.430054 784.619019 1255.26001 782.952026 1258 781 Z"/>
        </g>
        <g id="g130">
            <path id="path133" fill="#fefffe" fill-rule="evenodd" stroke="none" opacity="0.271" d="M 411 784 C 412.752014 783.91803 413.752014 784.750977 414 786.5 C 412.446991 789.78302 410.781006 789.78302 409 786.5 C 409.881012 785.791992 410.546997 784.958008 411 784 Z"/>
        </g>
        <g id="g131">
            <path id="path134" fill="#fefffe" fill-rule="evenodd" stroke="none" opacity="0.257" d="M 764 785 C 768.213989 788.254028 767.547974 789.921021 762 790 C 761.86499 787.945984 762.531982 786.278992 764 785 Z"/>
        </g>
        <g id="g132">
            <path id="path135" fill="#fefffe" fill-rule="evenodd" stroke="none" opacity="0.488" d="M 556 790 C 562.968018 790.429993 564.301025 793.263 560 798.5 C 553.754028 798.205017 552.421021 795.372009 556 790 Z"/>
        </g>
        <g id="g133">
            <path id="path136" fill="#fefffe" fill-rule="evenodd" stroke="none" opacity="0.497" d="M 132 791 C 135.490005 790.651001 137.822998 792.151001 139 795.5 C 137.143997 800.169983 134.309998 801.002991 130.5 798 C 129.667007 795.328979 130.167007 792.995972 132 791 Z"/>
        </g>
        <g id="g134">
            <path id="path137" fill="#fefffe" fill-rule="evenodd" stroke="none" opacity="0.497" d="M 1609 804 C 1614 803.171021 1616.170044 805.171021 1615.5 810 C 1612.829956 814 1610.170044 814 1607.5 810 C 1606.75 807.659973 1607.25 805.659973 1609 804 Z"/>
        </g>
        <g id="g135">
            <path id="path138" fill="#fefffe" fill-rule="evenodd" stroke="none" opacity="0.271" d="M 1176 806 C 1180.550049 806.432007 1181.050049 808.098999 1177.5 811 C 1174.98999 809.846985 1174.48999 808.179993 1176 806 Z"/>
        </g>
        <g id="g136">
            <path id="path139" fill="#fefffe" fill-rule="evenodd" stroke="none" opacity="0.48" d="M 1279 820 C 1284.73999 820.880981 1286.069946 823.713989 1283 828.5 C 1278 829.830017 1275.839966 827.995972 1276.5 823 C 1277.199951 821.809021 1278.030029 820.809021 1279 820 Z"/>
        </g>
        <g id="g137">
            <path id="path140" fill="#fefffe" fill-rule="evenodd" stroke="none" opacity="0.271" d="M 907 824 C 911.184021 824.940002 911.684021 826.606995 908.5 829 C 905.888977 828 905.388977 826.333008 907 824 Z"/>
        </g>
        <g id="g138">
            <path id="path141" fill="#fefffe" fill-rule="evenodd" stroke="none" opacity="0.232" d="M 1310 827 C 1313.660034 826.849976 1314.660034 828.349976 1313 831.5 C 1309.209961 831.987 1308.209961 830.487 1310 827 Z"/>
        </g>
        <g id="g139">
            <path id="path142" fill="#fefffe" fill-rule="evenodd" stroke="none" opacity="0.506" d="M 904 837 C 909.987 836.47699 911.987 838.97699 910 844.5 C 903.039978 845.716003 901.039978 843.216003 904 837 Z"/>
        </g>
        <g id="g140">
            <path id="path143" fill="#fefffe" fill-rule="evenodd" stroke="none" opacity="0.258" d="M 236 847 C 240.839996 847.687988 241.173004 849.35498 237 852 C 234.796005 850.718018 234.462006 849.051025 236 847 Z"/>
        </g>
        <g id="g141">
            <path id="path144" fill="#fefffe" fill-rule="evenodd" stroke="none" opacity="0.257" d="M 1169 852 C 1170.329956 852 1171.670044 852 1173 852 C 1173.219971 857.22699 1171.550049 858.059998 1168 854.5 C 1168.75 853.828979 1169.089966 852.995972 1169 852 Z"/>
        </g>
        <g id="g142">
            <path id="path145" fill="#fefffe" fill-rule="evenodd" stroke="none" opacity="0.31" d="M 190 853 C 194 852.333008 195.667007 854 195 858 C 191 858.666992 189.332993 857 190 853 Z"/>
        </g>
        <g id="g143">
            <path id="path146" fill="#fefffe" fill-rule="evenodd" stroke="none" opacity="0.481" d="M 1536 853 C 1542.900024 853.30603 1544.23999 856.138977 1540 861.5 C 1533.75 861.205017 1532.420044 858.372009 1536 853 Z"/>
        </g>
        <g id="g144">
            <path id="path147" fill="#fefffe" fill-rule="evenodd" stroke="none" opacity="0.464" d="M 892 857 C 893.333008 857 894.666992 857 896 857 C 896.695984 859.820007 897.695984 862.487 899 865 C 899.333008 868 898 869.333008 895 869 C 893.728027 868.929993 892.562012 868.596985 891.5 868 C 891.221008 864.330017 891.388 860.663025 892 857 Z"/>
        </g>
        <g id="g145">
            <path id="path148" fill="#fefffe" fill-rule="evenodd" stroke="none" opacity="0.271" d="M 1725 860 C 1728.660034 859.849976 1729.660034 861.349976 1728 864.5 C 1724.73999 864.41803 1723.73999 862.91803 1725 860 Z"/>
        </g>
        <g id="g146">
            <path id="path149" fill="#fefffe" fill-rule="evenodd" stroke="none" opacity="0.514" d="M 1099 871 C 1104.079956 870.679993 1105.910034 873.013977 1104.5 878 C 1102.170044 880.666992 1099.829956 880.666992 1097.5 878 C 1096.670044 875.328979 1097.170044 872.995972 1099 871 Z"/>
        </g>
        <g id="g147">
            <path id="path150" fill="#fefffe" fill-rule="evenodd" stroke="none" opacity="0.494" d="M 398 874 C 402.86499 874.184021 404.532013 876.518005 403 881 C 399.251007 883.91803 396.584991 883.085022 395 878.5 C 395.457001 876.559998 396.457001 875.059998 398 874 Z"/>
        </g>
        <g id="g148">
            <path id="path151" fill="#fefffe" fill-rule="evenodd" stroke="none" opacity="0.514" d="M 773 876 C 778.075012 875.679993 779.90802 878.013977 778.5 883 C 776.166992 885.666992 773.833008 885.666992 771.5 883 C 770.666992 880.328979 771.166992 877.995972 773 876 Z"/>
        </g>
        <g id="g149">
            <path id="path152" fill="#fefffe" fill-rule="evenodd" stroke="none" opacity="0.257" d="M 550 881 C 552.987 881.447998 553.987 882.947998 553 885.5 C 549.20697 885.987 548.20697 884.487 550 881 Z"/>
        </g>
        <g id="g150">
            <path id="path153" fill="#fefffe" fill-rule="evenodd" stroke="none" opacity="0.232" d="M 1359 896 C 1362.660034 895.849976 1363.660034 897.349976 1362 900.5 C 1358.209961 900.987 1357.209961 899.487 1359 896 Z"/>
        </g>
        <g id="g151">
            <path id="path154" fill="#fefffe" fill-rule="evenodd" stroke="none" opacity="0.481" d="M 141 905 C 144.959 904.078003 147.292007 905.578003 148 909.5 C 146.029999 913.752014 143.195999 914.585022 139.5 912 C 138.667007 909.328979 139.167007 906.995972 141 905 Z"/>
        </g>
        <g id="g152">
            <path id="path155" fill="#fefffe" fill-rule="evenodd" stroke="none" opacity="0.497" d="M 486 912 C 492.143005 912.526001 493.476013 915.359985 490 920.5 C 486.506012 921.361023 484.173004 920.028015 483 916.5 C 483.885986 914.88501 484.885986 913.38501 486 912 Z"/>
        </g>
        <g id="g153">
            <path id="path156" fill="#fefffe" fill-rule="evenodd" stroke="none" opacity="0.481" d="M 637 922 C 643.724976 921.703979 645.390991 924.370972 642 930 C 635.538025 930.52002 633.872009 927.853027 637 922 Z"/>
        </g>
        <g id="g154">
            <path id="path157" fill="#fefffe" fill-rule="evenodd" stroke="none" opacity="0.498" d="M 448 925 C 451.644989 924.179993 453.977997 925.513 455 929 C 453.221985 933.65802 450.388 934.65802 446.5 932 C 445.666992 929.328979 446.166992 926.995972 448 925 Z"/>
        </g>
        <g id="g155">
            <path id="path158" fill="#fefffe" fill-rule="evenodd" stroke="none" opacity="0.497" d="M 1503 927 C 1508.98999 926.47699 1510.98999 928.97699 1509 934.5 C 1505.400024 936.380981 1502.73999 935.380981 1501 931.5 C 1501.77002 930.030029 1502.430054 928.530029 1503 927 Z"/>
        </g>
        <g id="g156">
            <path id="path159" fill="#fefffe" fill-rule="evenodd" stroke="none" opacity="0.257" d="M 1629 936 C 1631.98999 936.447998 1632.98999 937.947998 1632 940.5 C 1628.209961 940.987 1627.209961 939.487 1629 936 Z"/>
        </g>
        <g id="g157">
            <path id="path160" fill="#fefffe" fill-rule="evenodd" stroke="none" opacity="0.489" d="M 1723 939 C 1728.98999 938.47699 1730.98999 940.97699 1729 946.5 C 1725.160034 948.41803 1722.48999 947.250977 1721 943 C 1721.680054 941.640015 1722.349976 940.307007 1723 939 Z"/>
        </g>
        <g id="g158">
            <path id="path161" fill="#fefffe" fill-rule="evenodd" stroke="none" opacity="0.473" d="M 1807 949 C 1812.829956 949.833008 1814.170044 952.666016 1811 957.5 C 1803.5 957.695984 1802.170044 954.862976 1807 949 Z"/>
        </g>
        <g id="g159">
            <path id="path162" fill="#fefffe" fill-rule="evenodd" stroke="none" opacity="0.232" d="M 775 953 C 778.661011 952.849976 779.661011 954.349976 778 957.5 C 774.20697 957.987 773.20697 956.487 775 953 Z"/>
        </g>
        <g id="g160">
            <path id="path163" fill="#fefffe" fill-rule="evenodd" stroke="none" opacity="0.472" d="M 1308 958 C 1312.98999 957.828979 1314.829956 960.161987 1313.5 965 C 1309.550049 968.015991 1306.709961 967.182983 1305 962.5 C 1305.459961 960.559998 1306.459961 959.059998 1308 958 Z"/>
        </g>
        <g id="g161">
            <path id="path164" fill="#fefffe" fill-rule="evenodd" stroke="none" opacity="0.481" d="M 1133 961 C 1138.73999 961.880981 1140.069946 964.713989 1137 969.5 C 1132 970.830017 1129.839966 968.995972 1130.5 964 C 1131.199951 962.809021 1132.030029 961.809021 1133 961 Z"/>
        </g>
        <g id="g162">
            <path id="path165" fill="#fefffe" fill-rule="evenodd" stroke="none" opacity="0.472" d="M 323 985 C 329.345001 985.041992 331.011993 987.708984 328 993 C 320.902008 993.95697 319.234985 991.289978 323 985 Z"/>
        </g>
        <g id="g163">
            <path id="path166" fill="#fefffe" fill-rule="evenodd" stroke="none" opacity="0.506" d="M 950 990 C 956.143005 990.526001 957.476013 993.359985 954 998.5 C 949.004028 999.159973 947.169983 997 948.5 992 C 949.21698 991.455994 949.71698 990.789001 950 990 Z"/>
        </g>
        <g id="g164">
            <path id="path167" fill="#fefffe" fill-rule="evenodd" stroke="none" opacity="0.258" d="M 1313 994 C 1318.22998 993.783997 1319.060059 995.450989 1315.5 999 C 1313.609985 997.880005 1312.77002 996.216003 1313 994 Z"/>
        </g>
        <g id="g165">
            <path id="path168" fill="#fefffe" fill-rule="evenodd" stroke="none" opacity="0.271" d="M 590 996 C 594.184021 996.940002 594.684021 998.609985 591.5 1001 C 588.888977 1000 588.388977 998.330017 590 996 Z"/>
        </g>
        <g id="g166">
            <path id="path169" fill="#fefffe" fill-rule="evenodd" stroke="none" opacity="0.497" d="M 985 1002 C 990.086975 1003.539978 991.086975 1006.369995 988 1010.5 C 983.002014 1011.830017 980.835999 1010 981.5 1005 C 982.64502 1003.859985 983.812012 1002.859985 985 1002 Z"/>
        </g>
        <g id="g167">
            <path id="path170" fill="#fefffe" fill-rule="evenodd" stroke="none" opacity="0.498" d="M 1163 1010 C 1168.25 1011.320007 1169.25 1014.159973 1166 1018.5 C 1160.420044 1019.76001 1158.589966 1017.590027 1160.5 1012 C 1161.48999 1011.429993 1162.329956 1010.77002 1163 1010 Z"/>
        </g>
        <g id="g168">
            <path id="path171" fill="#fefffe" fill-rule="evenodd" stroke="none" opacity="0.48" d="M 1585 1011 C 1589.98999 1010.830017 1591.829956 1013.159973 1590.5 1018 C 1586.589966 1021.030029 1583.76001 1020.200012 1582 1015.5 C 1582.459961 1013.559998 1583.459961 1012.059998 1585 1011 Z"/>
        </g>
        <g id="g169">
            <path id="path172" fill="#fefffe" fill-rule="evenodd" stroke="none" opacity="0.489" d="M 1756 1016 C 1761.72998 1015.5 1763.569946 1017.840027 1761.5 1023 C 1759.170044 1025.670044 1756.829956 1025.670044 1754.5 1023 C 1753.670044 1020.330017 1754.170044 1018 1756 1016 Z"/>
        </g>
        <g id="g170">
            <path id="path173" fill="#fefffe" fill-rule="evenodd" stroke="none" opacity="0.49" d="M 77 1018 C 83.658401 1016.840027 85.658401 1019.340027 83 1025.5 C 76.303398 1027.290039 74.303398 1024.790039 77 1018 Z"/>
        </g>
        <g id="g171">
            <path id="path174" fill="#fefffe" fill-rule="evenodd" stroke="none" opacity="0.244" d="M 1420 1020 C 1423.660034 1019.849976 1424.660034 1021.349976 1423 1024.5 C 1419.170044 1025.01001 1418.170044 1023.51001 1420 1020 Z"/>
        </g>
        <g id="g172">
            <path id="path175" fill="#fefffe" fill-rule="evenodd" stroke="none" opacity="0.355" d="M 764 1027 C 767.643005 1027.439941 768.97699 1029.280029 768 1032.5 C 763.765991 1032.77002 762.432983 1030.930054 764 1027 Z"/>
        </g>
        <g id="g173">
            <path id="path176" fill="#fefffe" fill-rule="evenodd" stroke="none" opacity="0.48" d="M 741 1050 C 745.994019 1049.829956 747.828003 1052.160034 746.5 1057 C 742.593994 1060.030029 739.760986 1059.199951 738 1054.5 C 738.45697 1052.560059 739.45697 1051.060059 741 1050 Z"/>
        </g>
        <g id="g174">
            <path id="path177" fill="#fefffe" fill-rule="evenodd" stroke="none" opacity="0.519" d="M 1739 1058 C 1743.839966 1057.180054 1746.170044 1059.180054 1746 1064 C 1743 1064 1740 1064 1737 1064 C 1736.75 1061.640015 1737.420044 1059.640015 1739 1058 Z"/>
        </g>
    </g>
    <path id="sparkle-32-filled" fill="#ffffff" stroke="none" opacity="0.9" d="M 569.996338 464.997925 C 568.426331 465.001404 567.0271 464.008362 566.512146 462.525208 L 565.106018 458.203796 C 564.774414 457.195496 564.209839 456.279541 563.45813 455.530212 C 562.70752 454.776367 561.791504 454.207886 560.782776 453.869873 L 556.514648 452.481567 C 555.409973 452.110718 554.545349 451.23999 554.182312 450.13269 C 553.819275 449.025452 554.000549 447.811768 554.671265 446.858887 C 555.112122 446.229553 555.737854 445.753174 556.463135 445.497192 L 560.798767 444.092834 C 562.770264 443.396851 564.315552 441.837891 564.994019 439.860291 L 566.412598 435.497925 C 566.661438 434.756653 567.141418 434.114929 567.781372 433.665222 C 569.065002 432.777649 570.764099 432.777649 572.047729 433.665222 C 572.669861 434.104248 573.13916 434.72467 573.391602 435.442871 L 574.80481 439.780273 C 575.483582 441.818909 577.084778 443.41748 579.124512 444.092834 L 583.399719 445.479431 C 584.174805 445.726501 584.848511 446.217163 585.323181 446.878418 C 586.22583 448.15271 586.22583 449.858032 585.323181 451.132324 C 584.884094 451.754517 584.263672 452.225586 583.545532 452.481567 L 579.202698 453.893005 C 578.19989 454.225586 577.289001 454.788757 576.543396 455.537292 C 575.794983 456.289246 575.227905 457.204773 574.891968 458.210876 L 573.505371 462.480774 C 573.24353 463.215332 572.768127 463.854797 572.140137 464.317078 C 571.514404 464.761536 570.764282 465.001526 569.996338 464.997925"/>
    <path id="sparkle-32-filled-copy" fill="#ffffff" stroke="none" opacity="0.9" d="M 1147.996338 702.997925 C 1146.426392 703.001404 1145.0271 702.008362 1144.512085 700.525208 L 1143.106079 696.203796 C 1142.774414 695.195496 1142.209839 694.279541 1141.45813 693.530212 C 1140.70752 692.776367 1139.791504 692.207886 1138.782715 691.869873 L 1134.514648 690.481567 C 1133.410034 690.110718 1132.54541 689.23999 1132.182251 688.13269 C 1131.819214 687.025452 1132.00061 685.811768 1132.671265 684.858887 C 1133.112061 684.229553 1133.737915 683.753174 1134.463135 683.497192 L 1138.798706 682.092834 C 1140.770264 681.396851 1142.315552 679.837891 1142.994019 677.860291 L 1144.412598 673.497925 C 1144.661377 672.756653 1145.141357 672.114929 1145.781372 671.665222 C 1147.064941 670.777649 1148.764038 670.777649 1150.047729 671.665222 C 1150.6698 672.104248 1151.13916 672.72467 1151.391602 673.442871 L 1152.80481 677.780273 C 1153.483521 679.818909 1155.084839 681.41748 1157.124512 682.092834 L 1161.399658 683.479431 C 1162.174805 683.726501 1162.848511 684.217163 1163.32312 684.878418 C 1164.22583 686.15271 1164.22583 687.858032 1163.32312 689.132324 C 1162.884033 689.754517 1162.263672 690.225586 1161.545532 690.481567 L 1157.202637 691.893005 C 1156.199951 692.225586 1155.289063 692.788757 1154.543457 693.537292 C 1153.794922 694.289246 1153.227905 695.204773 1152.891968 696.210876 L 1151.505371 700.480774 C 1151.24353 701.215332 1150.768066 701.854797 1150.140137 702.317078 C 1149.514404 702.761536 1148.764282 703.001526 1147.996338 702.997925"/>
    <path id="sparkle-32-filled-copy-2" fill="#ffffff" stroke="none" opacity="0.9" d="M 1345.996338 315.997925 C 1344.426392 316.001404 1343.0271 315.008362 1342.512085 313.525208 L 1341.106079 309.203796 C 1340.774414 308.195496 1340.209839 307.279541 1339.45813 306.530212 C 1338.70752 305.776367 1337.791504 305.207886 1336.782715 304.869873 L 1332.514648 303.481567 C 1331.410034 303.110718 1330.54541 302.23999 1330.182251 301.13269 C 1329.819214 300.025452 1330.00061 298.811768 1330.671265 297.858887 C 1331.112061 297.229553 1331.737915 296.753174 1332.463135 296.497192 L 1336.798706 295.092834 C 1338.770264 294.396851 1340.315552 292.837891 1340.994019 290.860291 L 1342.412598 286.497925 C 1342.661377 285.756653 1343.141357 285.114929 1343.781372 284.665222 C 1345.064941 283.777649 1346.764038 283.777649 1348.047729 284.665222 C 1348.6698 285.104248 1349.13916 285.72467 1349.391602 286.442871 L 1350.80481 290.780273 C 1351.483521 292.818909 1353.084839 294.41748 1355.124512 295.092834 L 1359.399658 296.479431 C 1360.174805 296.726501 1360.848511 297.217163 1361.32312 297.878418 C 1362.22583 299.15271 1362.22583 300.858032 1361.32312 302.132324 C 1360.884033 302.754517 1360.263672 303.225586 1359.545532 303.481567 L 1355.202637 304.893005 C 1354.199951 305.225586 1353.289063 305.788757 1352.543457 306.537292 C 1351.794922 307.289246 1351.227905 308.204773 1350.891968 309.210876 L 1349.505371 313.480774 C 1349.24353 314.215332 1348.768066 314.854797 1348.140137 315.317078 C 1347.514404 315.761536 1346.764282 316.001526 1345.996338 315.997925"/>
    <path id="sparkle-32-filled-copy-3" fill="#ffffff" stroke="none" opacity="0.9" d="M 1671.996338 888.997925 C 1670.426392 889.001404 1669.0271 888.008362 1668.512085 886.525208 L 1667.106079 882.203796 C 1666.774414 881.195496 1666.209839 880.279541 1665.45813 879.530212 C 1664.70752 878.776367 1663.791504 878.207886 1662.782715 877.869873 L 1658.514648 876.481567 C 1657.410034 876.110718 1656.54541 875.23999 1656.182251 874.13269 C 1655.819214 873.025452 1656.00061 871.811768 1656.671265 870.858887 C 1657.112061 870.229553 1657.737915 869.753174 1658.463135 869.497192 L 1662.798706 868.092834 C 1664.770264 867.396851 1666.315552 865.837891 1666.994019 863.860291 L 1668.412598 859.497925 C 1668.661377 858.756653 1669.141357 858.114929 1669.781372 857.665222 C 1671.064941 856.777649 1672.764038 856.777649 1674.047729 857.665222 C 1674.6698 858.104248 1675.13916 858.72467 1675.391602 859.442871 L 1676.80481 863.780273 C 1677.483521 865.818909 1679.084839 867.41748 1681.124512 868.092834 L 1685.399658 869.479431 C 1686.174805 869.726501 1686.848511 870.217163 1687.32312 870.878418 C 1688.22583 872.15271 1688.22583 873.858032 1687.32312 875.132324 C 1686.884033 875.754517 1686.263672 876.225586 1685.545532 876.481567 L 1681.202637 877.893005 C 1680.199951 878.225586 1679.289063 878.788757 1678.543457 879.537292 C 1677.794922 880.289246 1677.227905 881.204773 1676.891968 882.210876 L 1675.505371 886.480774 C 1675.24353 887.215332 1674.768066 887.854797 1674.140137 888.317078 C 1673.514404 888.761536 1672.764282 889.001526 1671.996338 888.997925"/>
    <path id="sparkle-32-filled-copy-4" fill="#ffffff" stroke="none" opacity="0.9" d="M 363.996338 904.997925 C 362.426331 905.001404 361.0271 904.008362 360.512146 902.525208 L 359.106018 898.203796 C 358.774414 897.195496 358.209839 896.279541 357.45813 895.530212 C 356.70752 894.776367 355.791504 894.207886 354.782776 893.869873 L 350.514648 892.481567 C 349.409973 892.110718 348.545349 891.23999 348.182312 890.13269 C 347.819275 889.025452 348.000549 887.811768 348.671265 886.858887 C 349.112122 886.229553 349.737854 885.753174 350.463135 885.497192 L 354.798767 884.092834 C 356.770264 883.396851 358.315552 881.837891 358.994019 879.860291 L 360.412598 875.497925 C 360.661438 874.756653 361.141418 874.114929 361.781372 873.665222 C 363.065002 872.777649 364.764099 872.777649 366.047729 873.665222 C 366.669861 874.104248 367.13916 874.72467 367.391602 875.442871 L 368.80481 879.780273 C 369.483582 881.818909 371.084778 883.41748 373.124512 884.092834 L 377.399719 885.479431 C 378.174805 885.726501 378.848511 886.217163 379.323181 886.878418 C 380.22583 888.15271 380.22583 889.858032 379.323181 891.132324 C 378.884094 891.754517 378.263672 892.225586 377.545532 892.481567 L 373.202698 893.893005 C 372.19989 894.225586 371.289001 894.788757 370.543396 895.537292 C 369.794983 896.289246 369.227905 897.204773 368.891968 898.210876 L 367.505371 902.480774 C 367.24353 903.215332 366.768127 903.854797 366.140137 904.317078 C 365.514404 904.761536 364.764282 905.001526 363.996338 904.997925"/>
    <path id="sparkle-32-filled-copy-5" fill="#ffffff" stroke="none" opacity="0.9" d="M 871.996338 354.997925 C 870.426331 355.001404 869.0271 354.008362 868.512146 352.525208 L 867.106018 348.203796 C 866.774414 347.195496 866.209839 346.279541 865.45813 345.530212 C 864.70752 344.776367 863.791504 344.207886 862.782776 343.869873 L 858.514648 342.481567 C 857.409973 342.110718 856.545349 341.23999 856.182312 340.13269 C 855.819275 339.025452 856.000549 337.811768 856.671265 336.858887 C 857.112122 336.229553 857.737854 335.753174 858.463135 335.497192 L 862.798767 334.092834 C 864.770264 333.396851 866.315552 331.837891 866.994019 329.860291 L 868.412598 325.497925 C 868.661438 324.756653 869.141418 324.114929 869.781372 323.665222 C 871.065002 322.777649 872.764099 322.777649 874.047729 323.665222 C 874.669861 324.104248 875.13916 324.72467 875.391602 325.442871 L 876.80481 329.780273 C 877.483582 331.818909 879.084778 333.41748 881.124512 334.092834 L 885.399719 335.479431 C 886.174805 335.726501 886.848511 336.217163 887.323181 336.878418 C 888.22583 338.15271 888.22583 339.858032 887.323181 341.132324 C 886.884094 341.754517 886.263672 342.225586 885.545532 342.481567 L 881.202698 343.893005 C 880.19989 344.225586 879.289001 344.788757 878.543396 345.537292 C 877.794983 346.289246 877.227905 347.204773 876.891968 348.210876 L 875.505371 352.480774 C 875.24353 353.215332 874.768127 353.854797 874.140137 354.317078 C 873.514404 354.761536 872.764282 355.001526 871.996338 354.997925"/>
</svg>
